<?xml version="1.0" standalone="no"?><svg xmlns="http://www.w3.org/2000/svg" viewBox="0 0 1440 320"><path fill="#0099ff" fill-opacity="1" d="M0,224L26.7,208C53.3,192,107,160,160,176C213.3,192,267,256,320,266.7C373.3,277,427,235,480,213.3C533.3,192,587,192,640,202.7C693.3,213,747,235,800,208C853.3,181,907,107,960,101.3C1013.3,96,1067,160,1120,202.7C1173.3,245,1227,267,1280,234.7C1333.3,203,1387,117,1413,74.7L1440,32L1440,320L1413.3,320C1386.7,320,1333,320,1280,320C1226.7,320,1173,320,1120,320C1066.7,320,1013,320,960,320C906.7,320,853,320,800,320C746.7,320,693,320,640,320C586.7,320,533,320,480,320C426.7,320,373,320,320,320C266.7,320,213,320,160,320C106.7,320,53,320,27,320L0,320Z"></path></svg>